# This file uses centimeters as units for non-parametric coordinates.

mtllib MarcoPuerta.mtl
g default
v -0.940053 -8.121037 -0.468598
v -0.927262 -8.121037 0.190862
v -0.927262 9.606055 0.190862
v -0.940053 9.606055 -0.468598
v -0.378470 8.974527 0.180217
v -0.378470 -8.121037 0.180217
v -0.391261 -8.121037 -0.479242
v -0.391261 8.974527 -0.479242
v 8.588598 -8.121037 -0.653422
v 9.295181 -8.121037 -0.667128
v 9.307973 -8.121037 -0.007668
v 8.601389 -8.121037 0.006037
v 8.588598 8.974527 -0.653422
v 8.601389 8.974527 0.006037
v 9.295181 9.606055 -0.667128
v 9.307973 9.606055 -0.007668
vt -0.000739 0.999260
vt 0.000741 -0.000739
vt 0.000741 -0.000740
vt -0.000739 0.999259
vt 0.054358 -0.000661
vt 0.054358 -0.000660
vt 0.052878 0.999339
vt 0.052878 0.999338
vt 0.930225 1.000638
vt 0.999259 1.000740
vt 1.000739 0.000741
vt 0.931705 0.000639
vt 0.930225 1.000637
vt 0.931705 0.000638
vt 0.999259 1.000739
vt 1.000739 0.000740
vn -0.999812 0.000000 0.019393
vn -0.999812 0.000000 0.019393
vn -0.999812 0.000000 0.019393
vn -0.999812 0.000000 0.019393
vn 0.999812 0.000000 -0.019393
vn 0.999812 0.000000 -0.019393
vn 0.999812 0.000000 -0.019393
vn 0.999812 0.000000 -0.019393
vn 0.000000 -1.000000 0.000000
vn 0.000000 -1.000000 0.000000
vn 0.000000 -1.000000 0.000000
vn 0.000000 -1.000000 0.000000
vn -0.999812 0.000000 0.019393
vn -0.999812 0.000000 0.019393
vn -0.999812 0.000000 0.019393
vn -0.999812 0.000000 0.019393
vn 0.999812 0.000000 -0.019393
vn 0.999812 0.000000 -0.019393
vn 0.999812 0.000000 -0.019393
vn 0.999812 0.000000 -0.019393
vn 0.000000 -1.000000 0.000000
vn 0.000000 -1.000000 0.000000
vn 0.000000 -1.000000 0.000000
vn 0.000000 -1.000000 0.000000
vn 0.000000 1.000000 0.000000
vn 0.000000 1.000000 0.000000
vn 0.000000 1.000000 0.000000
vn 0.000000 1.000000 0.000000
vn -0.019393 0.000000 -0.999812
vn -0.019393 0.000000 -0.999812
vn -0.019393 0.000000 -0.999812
vn -0.019393 0.000000 -0.999812
vn -0.019393 0.000000 -0.999812
vn -0.019393 0.000000 -0.999812
vn -0.019393 0.000000 -0.999812
vn -0.019393 0.000000 -0.999812
vn 0.019393 0.000000 0.999812
vn 0.019393 0.000000 0.999812
vn 0.019393 0.000000 0.999812
vn 0.019393 0.000000 0.999812
vn 0.019393 0.000000 0.999812
vn 0.019393 0.000000 0.999812
vn 0.019393 0.000000 0.999812
vn 0.019393 0.000000 0.999812
vn 0.000000 -1.000000 0.000000
vn 0.000000 -1.000000 0.000000
vn 0.000000 -1.000000 0.000000
vn 0.000000 -1.000000 0.000000
s off
g pCube3
usemtl lambert2SG
f 1/1/1 2/2/2 3/3/3 4/4/4
f 5/5/5 6/6/6 7/7/7 8/8/8
f 9/9/9 10/10/10 11/11/11 12/12/12
f 13/13/13 9/9/14 12/12/15 14/14/16
f 11/11/17 10/10/18 15/15/19 16/16/20
f 14/14/21 5/5/22 8/8/23 13/13/24
f 3/3/25 16/16/26 15/15/27 4/4/28
f 4/4/29 15/15/30 10/10/31 9/9/32 13/13/33 8/8/34 7/7/35 1/1/36
f 2/2/37 6/6/38 5/5/39 14/14/40 12/12/41 11/11/42 16/16/43 3/3/44
f 1/1/45 7/7/46 6/6/47 2/2/48
