# This file uses centimeters as units for non-parametric coordinates.

mtllib Ambiente.mtl
g default
v 230.467327 -12.964243 -74.883370
v 196.047236 -12.964243 -142.436633
v 142.436633 -12.964243 -196.047193
v 74.883363 -12.964243 -230.467298
v 0.000000 -12.964243 -242.327645
v -74.883363 -12.964243 -230.467283
v -142.436604 -12.964243 -196.047150
v -196.047150 -12.964243 -142.436590
v -230.467254 -12.964243 -74.883341
v -242.327588 -12.964243 0.000000
v -230.467254 -12.964243 74.883341
v -196.047150 -12.964243 142.436590
v -142.436590 -12.964243 196.047106
v -74.883341 -12.964243 230.467211
v -0.000007 -12.964243 242.327559
v 74.883320 -12.964243 230.467211
v 142.436546 -12.964243 196.047106
v 196.047092 -12.964243 142.436561
v 230.467182 -12.964243 74.883327
v 242.327530 -12.964243 0.000000
v 230.467327 104.001960 -74.883370
v 196.047236 104.001960 -142.436633
v 142.436633 104.001960 -196.047193
v 74.883363 104.001960 -230.467298
v 0.000000 104.001960 -242.327645
v -74.883363 104.001960 -230.467283
v -142.436604 104.001960 -196.047150
v -196.047150 104.001960 -142.436590
v -230.467254 104.001960 -74.883341
v -242.327588 104.001960 0.000000
v -230.467254 104.001960 74.883341
v -196.047150 104.001960 142.436590
v -142.436590 104.001960 196.047106
v -74.883341 104.001960 230.467211
v -0.000007 104.001960 242.327559
v 74.883320 104.001960 230.467211
v 142.436546 104.001960 196.047106
v 196.047092 104.001960 142.436561
v 230.467182 104.001960 74.883327
v 242.327530 104.001960 0.000000
v 0.000000 -12.964243 0.000000
v 0.000000 104.001960 0.000000
vt 0.975529 -0.000000
vt 0.904509 -0.000000
vt 0.904509 1.000000
vt 0.975529 1.000000
vt 0.793893 -0.000000
vt 0.793893 1.000000
vt 0.654509 -0.000000
vt 0.654509 1.000000
vt 0.500000 -0.000000
vt 0.500000 1.000000
vt 0.345492 -0.000000
vt 0.345492 1.000000
vt 0.206107 -0.000000
vt 0.206107 1.000000
vt 0.095492 -0.000000
vt 0.095492 1.000000
vt 0.024472 -0.000000
vt 0.024472 1.000000
vt 0.000000 -0.000000
vt 0.000000 1.000000
vt 0.024472 -0.000000
vt 0.024472 1.000000
vt 0.095492 -0.000000
vt 0.095492 1.000000
vt 0.206107 -0.000000
vt 0.206107 1.000000
vt 0.345492 -0.000000
vt 0.345492 1.000000
vt 0.500000 -0.000000
vt 0.500000 1.000000
vt 0.654509 -0.000000
vt 0.654509 1.000000
vt 0.793893 -0.000000
vt 0.793893 1.000000
vt 0.904509 -0.000000
vt 0.904509 1.000000
vt 0.975528 -0.000000
vt 0.975528 1.000000
vt 1.000000 -0.000000
vt 1.000000 1.000000
vt 0.500000 -0.000000
vt 0.950458 0.892850
vt 0.535686 0.851372
vt 0.975294 0.854422
vt 0.957098 0.815696
vt 0.897651 0.780462
vt 0.802773 0.752169
vt 0.681750 0.733587
vt 0.546430 0.726534
vt 0.410058 0.731701
vt 0.285983 0.748582
vt 0.186351 0.775525
vt 0.120914 0.809893
vt 0.096078 0.848321
vt 0.114274 0.887047
vt 0.173721 0.922281
vt 0.268599 0.950574
vt 0.389622 0.969156
vt 0.524942 0.976209
vt 0.661314 0.971042
vt 0.785389 0.954161
vt 0.885021 0.927218
vn -0.951057 0.000000 0.309016
vn -0.951057 0.000000 0.309016
vn -0.809017 0.000000 0.587785
vn -0.809017 0.000000 0.587785
vn -0.587785 0.000000 0.809017
vn -0.587785 0.000000 0.809017
vn -0.309017 0.000000 0.951057
vn -0.309017 0.000000 0.951057
vn 0.000000 0.000000 1.000000
vn 0.000000 0.000000 1.000000
vn 0.309017 0.000000 0.951056
vn 0.309017 0.000000 0.951056
vn 0.587785 0.000000 0.809017
vn 0.587785 0.000000 0.809017
vn 0.809017 0.000000 0.587785
vn 0.809017 0.000000 0.587785
vn 0.951057 0.000000 0.309017
vn 0.951057 0.000000 0.309017
vn 1.000000 0.000000 0.000000
vn 1.000000 0.000000 0.000000
vn 0.951057 0.000000 -0.309017
vn 0.951057 0.000000 -0.309017
vn 0.809017 0.000000 -0.587785
vn 0.809017 0.000000 -0.587785
vn 0.587785 0.000000 -0.809017
vn 0.587785 0.000000 -0.809017
vn 0.309017 0.000000 -0.951056
vn 0.309017 0.000000 -0.951056
vn 0.000000 0.000000 -1.000000
vn 0.000000 0.000000 -1.000000
vn -0.309017 0.000000 -0.951056
vn -0.309017 0.000000 -0.951056
vn -0.587785 0.000000 -0.809017
vn -0.587785 0.000000 -0.809017
vn -0.809017 0.000000 -0.587785
vn -0.809017 0.000000 -0.587785
vn -0.951057 0.000000 -0.309017
vn -0.951057 0.000000 -0.309017
vn -1.000000 0.000000 -0.000001
vn -1.000000 0.000000 -0.000001
vn 0.000000 1.000000 0.000000
vn 0.000000 1.000000 0.000000
vn 0.000000 1.000000 0.000000
vn 0.000000 1.000000 0.000000
vn 0.000000 1.000000 0.000000
vn 0.000000 1.000000 0.000000
vn 0.000000 1.000000 0.000000
vn 0.000000 1.000000 0.000000
vn 0.000000 1.000000 0.000000
vn 0.000000 1.000000 0.000000
vn 0.000000 1.000000 0.000000
vn 0.000000 1.000000 0.000000
vn 0.000000 1.000000 0.000000
vn 0.000000 1.000000 0.000000
vn 0.000000 1.000000 0.000000
vn 0.000000 1.000000 0.000000
vn 0.000000 1.000000 0.000000
vn 0.000000 1.000000 0.000000
vn 0.000000 1.000000 0.000000
vn 0.000000 1.000000 0.000000
vn 0.000000 1.000000 0.000000
vn 0.000000 -1.000000 0.000000
vn 0.000000 -1.000000 0.000000
vn 0.000000 -1.000000 0.000000
vn 0.000000 -1.000000 0.000000
vn 0.000000 -1.000000 0.000000
vn 0.000000 -1.000000 0.000000
vn 0.000000 -1.000000 0.000000
vn 0.000000 -1.000000 0.000000
vn 0.000000 -1.000000 0.000000
vn 0.000000 -1.000000 0.000000
vn 0.000000 -1.000000 0.000000
vn 0.000000 -1.000000 -0.000000
vn 0.000000 -1.000000 -0.000000
vn 0.000000 -1.000000 0.000000
vn 0.000000 -1.000000 0.000000
vn 0.000000 -1.000000 0.000000
vn 0.000000 -1.000000 0.000000
vn 0.000000 -1.000000 0.000000
vn 0.000000 -1.000000 -0.000000
vn 0.000000 -1.000000 -0.000000
vn 0.000000 -1.000000 -0.000000
s 1
g pCylinder1
usemtl lambert23SG
f 1/1/1 21/4/2 22/3/3 2/2/4
f 2/2/4 22/3/3 23/6/5 3/5/6
f 3/5/6 23/6/5 24/8/7 4/7/8
f 4/7/8 24/8/7 25/10/9 5/9/10
f 5/9/10 25/10/9 26/12/11 6/11/12
f 6/11/12 26/12/11 27/14/13 7/13/14
f 7/13/14 27/14/13 28/16/15 8/15/16
f 8/15/16 28/16/15 29/18/17 9/17/18
f 9/17/18 29/18/17 30/20/19 10/19/20
f 10/19/20 30/20/19 31/22/21 11/21/22
f 11/21/22 31/22/21 32/24/23 12/23/24
f 12/23/24 32/24/23 33/26/25 13/25/26
f 13/25/26 33/26/25 34/28/27 14/27/28
f 14/27/28 34/28/27 35/30/29 15/29/30
f 15/29/30 35/30/29 36/32/31 16/31/32
f 16/31/32 36/32/31 37/34/33 17/33/34
f 17/33/34 37/34/33 38/36/35 18/35/36
f 18/35/36 38/36/35 39/38/37 19/37/38
f 19/37/38 39/38/37 40/40/39 20/39/40
f 20/39/40 40/40/39 21/4/2 1/1/1
s 2
usemtl initialShadingGroup
f 2/2/41 41/41/42 1/1/43
f 3/5/44 41/41/42 2/2/41
f 4/7/45 41/41/42 3/5/44
f 5/9/46 41/41/42 4/7/45
f 6/11/47 41/41/42 5/9/46
f 7/13/48 41/41/42 6/11/47
f 8/15/49 41/41/42 7/13/48
f 9/17/50 41/41/42 8/15/49
f 10/19/51 41/41/42 9/17/50
f 11/21/52 41/41/42 10/19/51
f 12/23/53 41/41/42 11/21/52
f 13/25/54 41/41/42 12/23/53
f 14/27/55 41/41/42 13/25/54
f 15/29/56 41/41/42 14/27/55
f 16/31/57 41/41/42 15/29/56
f 17/33/58 41/41/42 16/31/57
f 18/35/59 41/41/42 17/33/58
f 19/37/60 41/41/42 18/35/59
f 20/39/61 41/41/42 19/37/60
f 1/1/43 41/41/42 20/39/61
s 3
usemtl lambert24SG
f 21/42/62 42/43/63 22/44/64
f 22/44/64 42/43/63 23/45/65
f 23/45/65 42/43/63 24/46/66
f 24/46/66 42/43/63 25/47/67
f 25/47/67 42/43/63 26/48/68
f 26/48/68 42/43/63 27/49/69
f 27/49/69 42/43/63 28/50/70
f 28/50/70 42/43/63 29/51/71
f 29/51/71 42/43/63 30/52/72
f 30/52/72 42/43/63 31/53/73
f 31/53/73 42/43/63 32/54/74
f 32/54/74 42/43/63 33/55/75
f 33/55/75 42/43/63 34/56/76
f 34/56/76 42/43/63 35/57/77
f 35/57/77 42/43/63 36/58/78
f 36/58/78 42/43/63 37/59/79
f 37/59/79 42/43/63 38/60/80
f 38/60/80 42/43/63 39/61/81
f 39/61/81 42/43/63 40/62/82
f 40/62/82 42/43/63 21/42/62
